PathFileType	4	(X/Y/Z)	Walk4.trc
DataRate	CameraRate	NumFrames	NumMarkers	Units	OrigDataRate	OrigDataStartFrame	OrigNumFrames
200.000000	200.000000	7	58	mm	200.000000	127	454
Frame#	Times		LFHD		RFHD		RBHD		C7		CLAV		STRN		RBack		RASI		LPSI		RACR1		RUA1		RElbow		RFA1		RWRR		RCAR		LACR1		LUA1		LElbow		LFA1		LWRR		LWRU		LCAR		RTH1		RTH3		RTH2		RTH4		RLFC		RTB1		RTB3		RTB2		RTB4		RLMAL		RMMAL		RCAL		RMT1		RMT5		RToe		LTH1		LTH3		LTH2		LTH4		LLFC		LTB1		LTB3		LTB2		LTB4		LLMAL		LMT5		LToe		RWRU		LBHD		T10		LMMAL		RPSI		LASI		LElbowM		LMT1		LCAL
			X1	Y1	Z1	X2	Y2	Z2	X3	Y3	Z3	X4	Y4	Z4	X5	Y5	Z5	X6	Y6	Z6	X7	Y7	Z7	X8	Y8	Z8	X9	Y9	Z9	X10	Y10	Z10	X11	Y11	Z11	X12	Y12	Z12	X13	Y13	Z13	X14	Y14	Z14	X15	Y15	Z15	X16	Y16	Z16	X17	Y17	Z17	X18	Y18	Z18	X19	Y19	Z19	X20	Y20	Z20	X21	Y21	Z21	X22	Y22	Z22	X23	Y23	Z23	X24	Y24	Z24	X25	Y25	Z25	X26	Y26	Z26	X27	Y27	Z27	X28	Y28	Z28	X29	Y29	Z29	X30	Y30	Z30	X31	Y31	Z31	X32	Y32	Z32	X33	Y33	Z33	X34	Y34	Z34	X35	Y35	Z35	X36	Y36	Z36	X37	Y37	Z37	X38	Y38	Z38	X39	Y39	Z39	X40	Y40	Z40	X41	Y41	Z41	X42	Y42	Z42	X43	Y43	Z43	X44	Y44	Z44	X45	Y45	Z45	X46	Y46	Z46	X47	Y47	Z47	X48	Y48	Z48	X49	Y49	Z49	X50	Y50	Z50	X51	Y51	Z51	X52	Y52	Z52	X53	Y53	Z53	X54	Y54	Z54	X55	Y55	Z55	X56	Y56	Z56	X57	Y57	Z57	X58	Y58	Z58

127	0.635	-669.73	1573.7	-51.716	-660.18	1573.7	42.747	-811.8	1523.6	73.225	-848.69	1393	9.8485	-707.1	1317.8	-3.5589	-646.92	1213	-1.7744	-892.03	1295.8	119.09	-669.07	952.96	160.33	-907.25	936.49	-44.481	-765.48	1352.8	154.96	-757.22	1175.3	255.26	-787.19	1051	289.52	-723.4	915.81	301.62	-611.04	861.93	255.88	-578.38	820.25	306.86	-780.92	1356.4	-156.92	-829.19	1177.2	-246.37	-892.7	1060.6	-261.24	-928.59	932.34	-281.59	-883.98	803.19	-261.56	-945.2	816.75	-296.83	-900.61	758.04	-304.47	-775.31	719.94	221.08	-839.49	568.6	170.25	-756.39	631.22	171.86	-809.68	644.04	193.63	-877.95	488.35	147.5	-896.85	327.18	70.294	-971.43	170.98	65.695	-955.09	258.4	123.99	-934.27	248.17	64.637	-1049.6	79.972	87.646	-1032.8	82.791	4.8479	-1118.9	61.829	51.339	-942.84	30.992	31.067	-977.32	24.8	106.53	-875.3	21.66	66.593	-720.01	727.94	-208.01	-646.2	582.09	-156.35	-632.94	687.12	-169.22	-683.38	656.72	-178.58	-599.91	476.02	-120.62	-511.25	357.43	-44.73	-474.22	189.4	-53.938	-511.63	270.49	-106.73	-493.65	272.66	-47.958	-479.4	71.985	-84.547	-382.3	56.172	-88.924	-301.75	99.86	-42.464	-656.44	827.47	299.45	-820.33	1516.6	-67.341	-916.33	1125.7	5.9649	-468.47	79.326	-0.31698	-910.11	944.41	44.144	-658.84	938.8	-134.66	-913.06	1039.2	-183.91	-361.11	76.264	-16.658	-529.99	23.184	-48.967
128	0.64	-664.24	1573.4	-52.341	-654.67	1573.3	42.12	-806.2	1523	72.591	-842.98	1392.4	8.9666	-701.26	1317.3	-4.2319	-640.97	1212.6	-2.2946	-886.42	1295.2	118.15	-663.05	952.44	160.01	-900.9	936	-45.062	-759.97	1352.3	154.27	-752.05	1174.7	254.63	-782.11	1050.5	288.79	-718.54	915.18	300.94	-606.37	861	255.22	-573.71	819.35	306.2	-775.02	1355.7	-157.73	-823.17	1176.4	-246.95	-886.77	1059.8	-261.66	-923.02	931.68	-281.9	-878.94	802.38	-261.68	-940.05	816.15	-297.1	-895.74	757.23	-304.53	-769.78	719.49	220.87	-834.19	568.29	169.99	-750.94	630.71	171.81	-804.25	643.66	193.42	-872.75	488.04	147.26	-892.94	326.67	70.016	-969.48	171.42	65.685	-951.95	258.64	123.85	-931.34	248.1	64.522	-1048.7	81.398	87.94	-1032.1	83.99	5.0949	-1118.4	64.109	51.791	-942.64	31.176	31.101	-977.07	25.037	106.53	-875.19	21.565	66.583	-713.6	727.53	-207.93	-639.96	581.67	-156.14	-626.53	686.65	-169.27	-677.03	656.3	-178.36	-593.76	475.53	-120.46	-506.02	356.13	-44.39	-470.57	187.76	-53.519	-507.28	269.16	-106.34	-489.21	271.19	-47.578	-477.14	70.604	-84.184	-380.51	53.413	-88.783	-298.91	95.319	-42.247	-651.75	826.77	299.04	-814.76	1516.1	-67.972	-910.27	1125	5.1804	-466.07	77.561	0.083542	-903.85	943.86	43.56	-652.42	938.3	-135.12	-907.19	1038.5	-184.32	-358.75	72.806	-16.507	-528.43	22.848	-48.686
129	0.645	-658.75	1573.2	-52.984	-649.16	1573	41.476	-800.61	1522.5	71.935	-837.26	1391.9	8.0462	-695.42	1316.9	-4.9276	-635.01	1212.2	-2.8381	-880.81	1294.7	117.17	-657	951.98	159.64	-894.55	935.58	-45.635	-754.47	1351.9	153.54	-746.91	1174.3	253.97	-777.1	1050	288.03	-713.8	914.58	300.25	-601.84	860.06	254.56	-569.21	818.41	305.56	-769.11	1355.1	-158.57	-817.1	1175.6	-247.55	-880.75	1059	-262.11	-917.31	931.02	-282.24	-873.75	801.59	-261.77	-934.73	815.56	-297.38	-890.68	756.43	-304.56	-764.2	719.08	220.65	-828.75	567.97	169.71	-745.39	630.24	171.75	-798.72	643.3	193.21	-867.37	487.7	147.01	-888.87	326.14	69.736	-967.41	171.9	65.676	-948.67	258.89	123.72	-928.29	248.04	64.408	-1047.7	82.919	88.25	-1031.3	85.284	5.3562	-1117.7	66.539	52.257	-942.43	31.371	31.134	-976.79	25.309	106.52	-875.06	21.477	66.556	-707.22	727.17	-207.88	-633.81	581.28	-155.93	-620.18	686.19	-169.37	-670.75	655.92	-178.17	-587.7	475.08	-120.33	-500.86	354.9	-44.067	-467.05	186.18	-53.112	-503.03	267.89	-105.96	-484.86	269.79	-47.21	-475.06	69.305	-83.822	-378.93	50.598	-88.659	-296.23	90.574	-42.046	-647.23	826.07	298.62	-809.2	1515.6	-68.626	-904.22	1124.5	4.3854	-463.83	75.865	0.47622	-897.57	943.37	42.991	-645.97	937.85	-135.58	-901.26	1037.8	-184.77	-356.58	69.268	-16.361	-527.09	22.69	-48.4
130	0.65	-653.27	1573	-53.645	-643.66	1572.8	40.814	-795.02	1522	71.258	-831.53	1391.5	7.0887	-689.59	1316.6	-5.645	-629.03	1212	-3.4034	-875.21	1294.2	116.16	-650.93	951.56	159.2	-888.19	935.23	-46.197	-748.97	1351.5	152.8	-741.81	1173.9	253.28	-772.15	1049.6	287.24	-709.19	914.03	299.54	-597.44	859.12	253.92	-564.88	817.45	304.94	-763.19	1354.5	-159.43	-810.97	1174.8	-248.17	-874.64	1058.2	-262.58	-911.47	930.37	-282.59	-868.4	800.82	-261.85	-929.24	814.97	-297.68	-885.43	755.64	-304.58	-758.55	718.7	220.41	-823.16	567.66	169.43	-739.73	629.82	171.67	-793.09	642.96	192.98	-861.79	487.33	146.74	-884.63	325.58	69.454	-965.23	172.42	65.669	-945.22	259.17	123.6	-925.09	247.99	64.294	-1046.7	84.544	88.572	-1030.5	86.68	5.6291	-1117	69.133	52.732	-942.18	31.573	31.164	-976.48	25.622	106.49	-874.94	21.395	66.513	-700.9	726.87	-207.87	-627.77	580.92	-155.72	-613.88	685.75	-169.51	-664.57	655.59	-178.01	-581.75	474.69	-120.24	-495.76	353.74	-43.766	-463.63	184.69	-52.724	-498.87	266.71	-105.59	-480.58	268.47	-46.861	-473.12	68.101	-83.471	-377.53	47.772	-88.547	-293.69	85.694	-41.842	-642.88	825.38	298.2	-803.63	1515.3	-69.301	-898.17	1124	3.5821	-461.7	74.263	0.85486	-891.29	942.94	42.44	-639.49	937.46	-136.03	-895.25	1037.1	-185.25	-354.56	65.702	-16.206	-525.93	22.705	-48.115
131	0.655	-647.79	1573	-54.325	-638.17	1572.6	40.134	-789.42	1521.6	70.562	-825.78	1391.1	6.0966	-683.76	1316.4	-6.3826	-623.04	1211.8	-3.9889	-869.62	1293.8	115.12	-644.82	951.2	158.71	-881.83	934.97	-46.746	-743.47	1351.3	152.04	-736.73	1173.5	252.57	-767.26	1049.3	286.42	-704.7	913.51	298.82	-593.16	858.16	253.3	-560.72	816.46	304.35	-757.26	1354	-160.32	-804.79	1174.1	-248.8	-868.44	1057.4	-263.08	-905.5	929.73	-282.97	-862.91	800.09	-261.9	-923.56	814.39	-298	-879.99	754.87	-304.58	-752.83	718.35	220.15	-817.4	567.33	169.15	-733.95	629.43	171.57	-787.34	642.62	192.73	-856	486.93	146.47	-880.2	325.01	69.172	-962.92	172.99	65.663	-941.6	259.47	123.49	-921.73	247.95	64.184	-1045.5	86.281	88.902	-1029.5	88.186	5.9109	-1116.2	71.904	53.205	-941.91	31.782	31.191	-976.14	25.978	106.46	-874.8	21.317	66.453	-694.62	726.63	-207.89	-621.83	580.6	-155.52	-607.66	685.34	-169.71	-658.47	655.33	-177.89	-575.88	474.37	-120.18	-490.72	352.68	-43.491	-460.3	183.29	-52.364	-494.76	265.63	-105.24	-476.37	267.25	-46.536	-471.3	66.999	-83.138	-376.27	44.979	-88.443	-291.3	80.751	-41.617	-638.69	824.7	297.77	-798.05	1515	-69.998	-892.12	1123.6	2.7727	-459.68	72.771	1.2139	-885	942.57	41.911	-632.97	937.14	-136.45	-889.18	1036.5	-185.76	-352.69	62.158	-16.029	-524.91	22.876	-47.843
132	0.66	-642.31	1573	-55.024	-632.67	1572.6	39.436	-783.82	1521.2	69.847	-820.02	1390.8	5.0733	-677.93	1316.2	-7.1387	-617.04	1211.7	-4.5929	-864.02	1293.5	114.06	-638.69	950.9	158.14	-875.47	934.78	-47.278	-737.96	1351.1	151.27	-731.69	1173.3	251.84	-762.43	1049.1	285.56	-700.34	913.05	298.07	-589.01	857.21	252.69	-556.73	815.46	303.78	-751.3	1353.6	-161.22	-798.55	1173.4	-249.45	-862.15	1056.7	-263.59	-899.39	929.11	-283.36	-857.25	799.38	-261.93	-917.71	813.83	-298.34	-874.35	754.12	-304.57	-747.02	718.03	219.87	-811.47	566.98	168.86	-728.04	629.08	171.44	-781.46	642.3	192.46	-849.98	486.5	146.18	-875.57	324.42	68.897	-960.47	173.62	65.66	-937.8	259.8	123.38	-918.21	247.94	64.08	-1044.3	88.138	89.234	-1028.5	89.81	6.1983	-1115.2	74.864	53.668	-941.62	31.997	31.214	-975.77	26.383	106.41	-874.67	21.244	66.377	-688.4	726.48	-207.96	-616	580.33	-155.32	-601.5	684.98	-169.95	-652.45	655.14	-177.82	-570.1	474.12	-120.17	-485.72	351.72	-43.247	-457.06	182	-52.043	-490.7	264.65	-104.93	-472.22	266.13	-46.243	-469.58	65.997	-82.833	-375.13	42.26	-88.348	-289.04	75.81	-41.354	-634.68	824.03	297.31	-792.47	1514.7	-70.714	-886.07	1123.3	1.9598	-457.77	71.398	1.549	-878.69	942.28	41.406	-626.43	936.89	-136.85	-883.03	1035.9	-186.3	-350.96	58.681	-15.819	-524.01	23.181	-47.595
133	0.665	-636.82	1573.1	-55.742	-627.17	1572.6	38.719	-778.21	1521	69.114	-814.24	1390.6	4.0236	-672.1	1316.2	-7.9114	-611.03	1211.6	-5.2137	-858.42	1293.3	112.97	-632.53	950.66	157.51	-869.12	934.68	-47.789	-732.45	1351	150.48	-726.67	1173.1	251.08	-757.64	1048.9	284.67	-696.09	912.65	297.3	-584.97	856.26	252.09	-552.91	814.44	303.24	-745.33	1353.2	-162.14	-792.25	1172.8	-250.1	-855.77	1056	-264.13	-893.14	928.51	-283.78	-851.43	798.72	-261.95	-911.68	813.29	-298.7	-868.52	753.4	-304.54	-741.12	717.74	219.56	-805.34	566.62	168.58	-721.98	628.77	171.27	-775.43	641.99	192.17	-843.71	486.02	145.9	-870.73	323.81	68.634	-957.86	174.3	65.662	-933.8	260.15	123.29	-914.52	247.94	63.986	-1042.9	90.123	89.564	-1027.3	91.559	6.4883	-1114	78.025	54.111	-941.29	32.217	31.232	-975.36	26.844	106.34	-874.54	21.173	66.288	-682.24	726.4	-208.07	-610.25	580.12	-155.15	-595.41	684.67	-170.23	-646.51	655.03	-177.79	-564.38	473.95	-120.2	-480.78	350.85	-43.039	-453.91	180.82	-51.766	-486.68	263.79	-104.67	-468.14	265.11	-45.988	-467.95	65.092	-82.56	-374.09	39.654	-88.263	-286.94	70.933	-41.043	-630.82	823.37	296.84	-786.89	1514.6	-71.45	-880.03	1123	1.1458	-455.96	70.145	1.8572	-872.39	942.04	40.929	-619.86	936.72	-137.22	-876.81	1035.3	-186.85	-349.37	55.311	-15.57	-523.2	23.593	-47.382
